<svg width="32" height="32" viewBox="0 0 32 32" fill="none" xmlns="http://www.w3.org/2000/svg">
  <rect width="32" height="32" rx="6" fill="#059669"/>
  <path d="M16 6C12.691 6 10 8.691 10 12C10 15.309 12.691 18 16 18C19.309 18 22 15.309 22 12C22 8.691 19.309 6 16 6ZM16 14C14.896 14 14 13.104 14 12C14 10.896 14.896 10 16 10C17.104 10 18 10.896 18 12C18 13.104 17.104 14 16 14Z" fill="white"/>
  <path d="M16 20C13.794 20 11.883 21.226 10.9 23H21.1C20.117 21.226 18.206 20 16 20Z" fill="white"/>
  <path d="M8 26C8 24.895 8.895 24 10 24H22C23.105 24 24 24.895 24 26V26H8V26Z" fill="white"/>
</svg>